<svg width="115" height="33" viewBox="0 0 115 33" fill="none" xmlns="http://www.w3.org/2000/svg"><path d="M11.6 3.85c-1.6 0-2.8.7-3.6 1.7h-.11v-6.2h-2v15.5h2v-5.3c0-2.1 1.3-3.6 3.31-3.6 1.8 0 2.9 1.4 2.9 3.2v5.7h2V8.53c0-2.87-1.87-4.68-4.5-4.68Zm36.2 8.2c0 1.7 1 2.7 2.8 2.7h2v-2h-1.71c-.69 0-1.09-.4-1.09-1.1V-.65h-2v12.7Zm-21.2-7.9h-4.8V.45h-2.01v3.8h-1.9v2h1.9v6c0 1.7 1.01 2.7 2.71 2.7h4.1v-2h-3.71c-.69 0-1.09-.4-1.09-1.1v-5.7h4.8v-2Zm14.5-.2c-1.6 0-2.9.8-3.5 2.1h-.1a3.74 3.74 0 0 0-3.4-2.1c-1.4 0-2.5.8-3.1 1.8h-.11v-1.6H29v10.6h2v-5.4c0-2 1-3.5 2.6-3.5 1.5 0 2.4 1 2.4 2.6v6.3h2v-5.6c0-2.4 1.39-3.3 2.6-3.3 1.5 0 2.4 1 2.4 2.6v6.3h2V8.02c0-2.38-1.48-4.07-3.9-4.07ZM0 12.25v2.6h2.5v-2.6H0Zm68.69 6.9a4.9 4.9 0 0 0-3.89-1.9c-3.1 0-5.41 2.3-5.41 5.6s2.21 5.6 5.41 5.6c1.7 0 3-.8 3.8-1.8h.09v1.5h2v-15.4h-2v6.4Zm-39.8-.1a4.82 4.82 0 0 0-3.89-1.8c-3.11 0-5.4 2.3-5.4 5.6s2.29 5.6 5.4 5.6c1.8 0 3-.8 3.8-1.9h.09v1.6h2v-10.6h-2v1.5Zm15.31 2.3c-.5-2.4-2.6-4.1-5.4-4.1a5.4 5.4 0 0 0-5.6 5.6 5.4 5.4 0 0 0 5.6 5.6c2.8 0 4.9-1.8 5.4-4.2h-2.1a3.41 3.41 0 0 1-3.3 2.3c-2.2 0-3.6-1.6-3.6-3.6s1.4-3.6 3.6-3.6c1.59 0 2.8 1 3.3 2.2h2.1v-.2Zm10.9-2.3a4.87 4.87 0 0 0-3.9-1.8c-3.1 0-5.4 2.3-5.4 5.6s2.3 5.6 5.4 5.6c1.8 0 3-.8 3.8-1.9h.1v1.6h2v-10.6h-2v1.5Zm23.2-1.8c-3.3 0-5.5 2.5-5.5 5.6 0 3 2.09 5.6 5.5 5.6 2.5 0 4.5-1.3 5.2-3.6h-2.11c-.5 1-1.59 1.6-3 1.6-1.89 0-3.29-1.3-3.39-2.9h8.8l.01-.45c0-3.37-2.16-5.85-5.51-5.85Zm19.9 0c-1.6 0-2.9.8-3.6 2h-.1c-.61-1.2-1.8-2-3.4-2-1.4 0-2.5.7-3.1 1.8v-1.5h-1.9v10.6h2v-5.4c0-2 1-3.4 2.6-3.5 1.5 0 2.4 1 2.4 2.6v6.3h2v-5.6c0-2.4 1.4-3.3 2.6-3.3 1.5 0 2.4 1 2.4 2.6v6.3h2v-6.74c0-2.47-1.48-4.16-3.9-4.16Zm11.2 9.1-3.6-8.9h-2.2l4.8 11.6c-.3.9-.7 1.2-1.7 1.2h-2.5v2h2.5c1.8 0 2.8-.8 3.5-2.6l4.7-12.2h-2.1l-3.4 8.9Zm-31.1-7.2c1.7 0 3 1 3.3 2.6h-6.5c.29-1.5 1.5-2.6 3.2-2.6Zm-53 7.3c-2.2 0-3.6-1.6-3.6-3.6s1.4-3.6 3.6-3.6 3.59 1.6 3.59 3.6c0 1.9-1.39 3.6-3.59 3.6Zm26.2 0c-2.2 0-3.61-1.6-3.61-3.6s1.41-3.6 3.61-3.6 3.6 1.6 3.6 3.6c0 1.9-1.5 3.6-3.6 3.6Zm13.6 0c-2.21 0-3.6-1.6-3.6-3.6s1.39-3.6 3.6-3.6c2.2 0 3.59 1.6 3.59 3.6-.09 2-1.5 3.6-3.59 3.6Z" fill="#000" fill-rule="evenodd"/></svg>