<svg width="74" height="70" fill="none" xmlns="http://www.w3.org/2000/svg"><path d="M5.1 31.5H69V28.4C68.5 12.7 54.4 0 37 0S5.8 12.7 5 28.5v1.2l.1 1.8ZM37.1 3c15.6 0 28.5 11.3 29 25.5h-58C8.5 14.4 21.4 3 37 3Zm-7.8 9.2a2 2 0 0 0 1.9-2 2 2 0 0 0-2-2 2 2 0 0 0-1.8 2c0 1.1.8 2 1.9 2Zm17.4-2a2 2 0 0 1-1.9 2 2 2 0 0 1-1.9-2c0-1.1.9-2 2-2 1 0 1.8.9 1.8 2ZM39 15.3a2 2 0 0 1-2 2 2 2 0 0 1-1.8-2c0-1.1.8-2 1.9-2 1 0 1.9.9 1.9 2ZM21 42.5l-5.4-4.1-5.3 4.1-6.2-4.7 1.7-2.5 4.5 3.4 5.3-4.1 5.5 4.1 5.3-4.1 5.3 4.1 5.3-4.1 5.4 4.1 5.3-4.1 5.3 4.1 5.4-4.1 5.4 4.1 4.5-3.4 1.7 2.5-6.2 4.7-5.4-4.1-5.4 4.1-5.3-4.1-5.3 4.1-5.4-4.1-5.3 4.1-5.3-4.1-5.3 4.1Zm49 4.2H4.2A4.2 4.2 0 0 0 0 51v3.5c0 2.4 1.9 4.3 4.1 4.3h1v1.1A10 10 0 0 0 14.5 70h44.7c5.4 0 9.7-4.5 9.7-10.1v-1.1h.9c2.3 0 4-1.9 4-4.3V51a4 4 0 0 0-3.8-4.3Zm1.3 7.8c0 .7-.6 1.3-1.2 1.3H4c-.8 0-1.3-.6-1.3-1.3V51c0-.7.6-1.3 1.2-1.3h66c.7 0 1.2.6 1.2 1.3v3.5Zm-5.1 5.4c0 3.9-3 7-6.8 7H14.6a7 7 0 0 1-6.7-7v-1.1h58.3v1.1Z" fill="#83B3D3" fill-rule="evenodd"/></svg>