<svg width="16" height="15" viewBox="0 0 16 15" fill="none" xmlns="http://www.w3.org/2000/svg"><path d="M15 2h-2V0h-1v2H4V0H3v2H1c-.61 0-1 .4-1 1v11c0 .5.39 1 1 1h14c.5 0 1-.5 1-1V3c0-.6-.5-1-1-1ZM1 6V3h2v2h1V3h8v2h1V3h2v3H1Zm14 8H1V7h14v7ZM3.5 10c.3 0 .5-.21.5-.5 0-.3-.2-.5-.5-.5-.31 0-.5.2-.5.5 0 .29.19.5.5.5Zm2.25 0c.3 0 .5-.21.5-.5 0-.3-.2-.5-.5-.5-.31 0-.5.2-.5.5 0 .29.19.5.5.5ZM8 10c.3 0 .5-.21.5-.5 0-.3-.2-.5-.5-.5-.31 0-.5.2-.5.5 0 .29.19.5.5.5Zm2.25 0c.3 0 .5-.21.5-.5 0-.3-.2-.5-.5-.5-.31 0-.5.2-.5.5 0 .29.19.5.5.5Zm2.25 0c.3 0 .5-.21.5-.5 0-.3-.2-.5-.5-.5s-.5.2-.5.5c0 .29.2.5.5.5Zm-9 1c-.31 0-.5.2-.5.5s.19.5.5.5c.3 0 .5-.2.5-.5s-.2-.5-.5-.5Zm2.25 0c-.31 0-.5.2-.5.5s.19.5.5.5c.3 0 .5-.2.5-.5s-.2-.5-.5-.5ZM8 11c-.31 0-.5.2-.5.5s.19.5.5.5c.3 0 .5-.2.5-.5S8.3 11 8 11Zm2.25 0c-.31 0-.5.2-.5.5s.19.5.5.5c.3 0 .5-.2.5-.5s-.2-.5-.5-.5Zm2.25 0c-.3 0-.5.2-.5.5s.2.5.5.5.5-.2.5-.5-.2-.5-.5-.5Z" fill="#000" fill-rule="evenodd"/></svg>