<svg width="24" height="14" viewBox="0 0 24 14" fill="none" xmlns="http://www.w3.org/2000/svg"><path d="M23.11.8c.17-.55 0-.95-.79-.95h-2.63c-.67 0-.97.35-1.14.73 0 0-1.34 3.2-3.23 5.27-.61.61-.89.8-1.22.8-.17 0-.42-.19-.42-.74V.8c0-.66-.18-.95-.74-.95H8.81c-.41 0-.67.31-.67.59 0 .63.95.77 1.05 2.52v3.8c0 .83-.16.98-.49.98-.89 0-3.05-3.21-4.34-6.89-.25-.71-.5-1-1.17-1H.56c-.75 0-.9.35-.9.73 0 .68.89 4.07 4.15 8.55 2.17 3.06 5.22 4.72 8 4.72 1.67 0 1.88-.37 1.88-1v-2.31c0-.74.16-.89.69-.89.39 0 1.05.19 2.61 1.67 1.78 1.75 2.07 2.53 3.08 2.53h2.62c.75 0 1.13-.37.91-1.09-.24-.73-1.09-1.78-2.21-3.03-.62-.71-1.53-1.47-1.81-1.85-.39-.5-.28-.71 0-1.15 0 0 3.2-4.43 3.53-5.93Z" fill="#83B3D3" fill-rule="evenodd"/></svg>